<?xml version="1.0" standalone="no"?>
<!DOCTYPE svg PUBLIC "-//W3C//DTD SVG 20010904//EN"
 "http://www.w3.org/TR/2001/REC-SVG-20010904/DTD/svg10.dtd">
<svg version="1.0" xmlns="http://www.w3.org/2000/svg"
 width="40.000000pt" height="40.000000pt" viewBox="0 0 40.000000 40.000000"
 preserveAspectRatio="xMidYMid meet">
<metadata>
Created by potrace 1.10, written by Peter Selinger 2001-2011
</metadata>
<g transform="translate(0.000000,40.000000) scale(0.100000,-0.100000)"
fill="#000000" stroke="none">
<path d="M97 296 c-83 -31 -87 -33 -68 -47 19 -12 20 -18 11 -52 -6 -20 -8
-42 -5 -47 3 -5 -2 -24 -11 -41 -13 -26 -13 -33 -3 -40 23 -14 34 9 39 84 l5
72 57 28 c31 16 65 27 75 24 19 -4 14 -7 -64 -38 l-28 -11 46 -17 c45 -18 46
-18 142 13 53 17 97 33 97 36 0 6 -181 70 -195 69 -5 0 -50 -15 -98 -33z"/>
<path d="M83 189 c4 -13 7 -32 7 -41 0 -24 71 -42 137 -35 73 8 93 21 93 62
l0 34 -60 -21 c-63 -21 -72 -20 -164 18 -17 6 -18 4 -13 -17z"/>
</g>
</svg>
